<svg xmlns="http://www.w3.org/2000/svg" data-name="Layer 1" viewBox="0 0 48 60" x="0px" y="0px"><title>Artboard 1 copy 57</title><g><path d="M29.37,20.58h-.29V18.7A3.68,3.68,0,0,0,25.4,15h-.67a3.68,3.68,0,0,0-3.67,3.68v1.88h-.29a1.8,1.8,0,0,0-1.8,1.8v8a.54.54,0,0,0,.55.55h11.1a.55.55,0,0,0,.55-.55v-8A1.8,1.8,0,0,0,29.37,20.58ZM22.16,18.7a2.58,2.58,0,0,1,2.57-2.58h.67A2.59,2.59,0,0,1,28,18.7v1.88H22.16Zm7.91,11.1h-10V22.38a.7.7,0,0,1,.7-.71h8.6a.7.7,0,0,1,.7.71Z"/><path d="M25.07,24a1,1,0,0,0-.55,1.92v1.27a.55.55,0,0,0,1.1,0V25.91a1,1,0,0,0,.5-.87A1,1,0,0,0,25.07,24Z"/><path d="M5,37.61a1.17,1.17,0,1,0,1.17,1.17A1.17,1.17,0,0,0,5,37.61Z"/><path d="M44.78,36.54V34.07a.4.4,0,0,0-.4-.41H41.85s0-1.45,0-1.48a1.15,1.15,0,0,0,.79-1.08,1.17,1.17,0,1,0-2.34,0,1.15,1.15,0,0,0,.79,1.08s0,1.89,0,1.89a.4.4,0,0,0,.4.4H44v2.07a1.15,1.15,0,0,0-.77,1.08,1.17,1.17,0,1,0,2.33,0A1.15,1.15,0,0,0,44.78,36.54Z"/><circle cx="24.12" cy="43.15" r="1.17"/><path d="M18.23,5.78a1.17,1.17,0,1,0-1.17-1.17A1.16,1.16,0,0,0,18.23,5.78Z"/><path d="M44.51,20.82V16.29a.55.55,0,0,0-.55-.55H41.08V11.37a2.37,2.37,0,1,0-1.1,0v4.37H36.29A14.18,14.18,0,0,0,26.2,10.26V8.46l4.46-.06a.55.55,0,0,0,.55-.55V6a2.38,2.38,0,1,0-1.1-.13v1.4l-4.47.06a.55.55,0,0,0-.54.55v2.29h0a14.12,14.12,0,0,0-9.93,4.07H12.31V7.43a.55.55,0,0,0-.55-.55H8.86a2.37,2.37,0,1,0,0,1.1h2.35v6.84a.54.54,0,0,0,.55.55h2.37a14.12,14.12,0,0,0-3.25,9c0,.42,0,.84.06,1.25H9a.55.55,0,0,0-.55.55v3.1H6.41a2.37,2.37,0,1,0,0,1.1H9a.54.54,0,0,0,.55-.55v-3.1h1.51a14.21,14.21,0,0,0,4.79,8.45H14a.55.55,0,0,0-.55.55V38a2.37,2.37,0,1,0,1.1,0V36.29h2.85a14.09,14.09,0,0,0,13.61,1v4.78a.55.55,0,0,0,.55.55h4a2.38,2.38,0,1,0,0-1.1H32.07V36.72a14.13,14.13,0,0,0,5-19.88h6.35v4a2.37,2.37,0,1,0,1.1,0ZM29.65,3.69A1.28,1.28,0,1,1,30.93,5,1.28,1.28,0,0,1,29.65,3.69ZM6.56,8.7A1.28,1.28,0,1,1,7.83,7.43,1.27,1.27,0,0,1,6.56,8.7ZM4.11,31.12a1.28,1.28,0,1,1,1.27-1.28A1.28,1.28,0,0,1,4.11,31.12Zm11.12,9.21A1.27,1.27,0,1,1,14,39.06,1.27,1.27,0,0,1,15.23,40.33Zm22.63.45a1.28,1.28,0,1,1-1.27,1.28A1.27,1.27,0,0,1,37.86,40.78Zm-12.79-3.3A13.09,13.09,0,1,1,38.16,24.39,13.1,13.1,0,0,1,25.07,37.48ZM39.26,9.07a1.27,1.27,0,1,1,1.27,1.27A1.28,1.28,0,0,1,39.26,9.07ZM44,24.4a1.28,1.28,0,1,1,1.27-1.28A1.27,1.27,0,0,1,44,24.4Z"/><path d="M2.61,17.1a1.14,1.14,0,0,0,1.08-.78l1.36,0v4a.4.4,0,0,0,.4.41l2.14,0a1.17,1.17,0,1,0,0-.77L5.85,20v-4a.4.4,0,0,0-.4-.4H3.69A1.16,1.16,0,1,0,2.61,17.1Z"/></g><text x="0" y="63" fill="#000000" font-size="5px" font-weight="bold" font-family="'Helvetica Neue', Helvetica, Arial-Unicode, Arial, Sans-serif">Created by Frühstück</text><text x="0" y="68" fill="#000000" font-size="5px" font-weight="bold" font-family="'Helvetica Neue', Helvetica, Arial-Unicode, Arial, Sans-serif">from the Noun Project</text></svg>